# xmcd
#
# Track frame offsets:
#	150
#	13354
#	25278
#	36948
#	48228
#	59906
#	74586
#	84527
#	97461
#	110538
#	121693
#	132943
#	145710
#	161881
#	174448
#	185360
#	196388
#	208736
#	222111
#	233251
#	246629
#
# Disc length: 3459 seconds
#
# Revision: 0
# Processed by: cddbd v1.5PL3 Copyright (c) Steve Scherf et al.
# Submitted via: dBpowerAMP V4.0
#
DISCID=400d8115
DTITLE=Cascatinha e Inhana - A saudade e demais
DYEAR=1900
DGENRE=
TTITLE0=Flor do Cafezal
TTITLE1=Quero Beijar-te as maos 
TTITLE2=Sou Inocente
TTITLE3=Amor Perdido
TTITLE4=Mato-Grossense
TTITLE5=Ave-Maria do Sertao
TTITLE6=Namorados
TTITLE7=Feitico Indio
TTITLE8=Lar Destruido
TTITLE9=Ela
TTITLE10=Ingratidao
TTITLE11=Meu Rincao
TTITLE12=Coracao Incerto
TTITLE13=Exilado
TTITLE14=A Rosa e a Formiga
TTITLE15=A Felicidade
TTITLE16=Deixa o Pinho Solucar
TTITLE17=Teu Fracasso
TTITLE18=Tropeiro Gaucho
TTITLE19=A Saudade e Demais
TTITLE20=A Sombra da Outra
EXTD=
EXTT0=
EXTT1=
EXTT2=
EXTT3=
EXTT4=
EXTT5=
EXTT6=
EXTT7=
EXTT8=
EXTT9=
EXTT10=
EXTT11=
EXTT12=
EXTT13=
EXTT14=
EXTT15=
EXTT16=
EXTT17=
EXTT18=
EXTT19=
EXTT20=
PLAYORDER=
